<svg width="20" height="20" viewBox="0 0 20 20" fill="none" xmlns="http://www.w3.org/2000/svg">
<path d="M17.6471 3.52942H2.35296C1.35296 3.52942 0.588257 4.29412 0.588257 5.29412V14.7059C0.588257 15.7059 1.35296 16.4706 2.35296 16.4706H17.6471C18.6471 16.4706 19.4118 15.7059 19.4118 14.7059V5.29412C19.4118 4.29412 18.6471 3.52942 17.6471 3.52942ZM18.2353 14.7059C18.2353 15.0588 18 15.2941 17.6471 15.2941H2.35296C2.00002 15.2941 1.76473 15.0588 1.76473 14.7059V5.29412C1.76473 4.94118 2.00002 4.70589 2.35296 4.70589H17.6471C18 4.70589 18.2353 4.94118 18.2353 5.29412V14.7059Z" fill="#9F9F9F"/>
<path d="M8.70587 8.99997C8.76469 8.76468 8.82352 8.47056 8.82352 8.23527C8.82352 6.94115 7.76469 5.88232 6.47057 5.88232C5.17646 5.88232 4.11763 6.94115 4.11763 8.23527C4.11763 8.52938 4.17646 8.76468 4.23528 8.99997C3.47057 9.35291 2.94116 10.1176 2.94116 11.0588V13.5294C2.94116 13.8823 3.17646 14.1176 3.5294 14.1176H9.41175C9.76469 14.1176 9.99999 13.8823 9.99999 13.5294V11.0588C9.99999 10.1176 9.47057 9.35291 8.70587 8.99997ZM6.47057 7.05879C7.11763 7.05879 7.64704 7.58821 7.64704 8.23527C7.64704 8.88232 7.11763 9.41174 6.47057 9.41174C5.82352 9.41174 5.2941 8.88232 5.2941 8.23527C5.2941 7.58821 5.82352 7.05879 6.47057 7.05879ZM8.82352 12.9411H4.11763V11.0588C4.11763 10.5294 4.47057 10.1176 4.94116 10.0588C5.35293 10.4117 5.88234 10.647 6.47057 10.647C7.05881 10.647 7.58822 10.4117 7.99999 10.0588C8.47057 10.1764 8.82352 10.5882 8.82352 11.0588V12.9411ZM16.4706 7.05879H11.7647C11.4118 7.05879 11.1765 7.29409 11.1765 7.64703C11.1765 7.99997 11.4118 8.23527 11.7647 8.23527H16.4706C16.8235 8.23527 17.0588 7.99997 17.0588 7.64703C17.0588 7.29409 16.8235 7.05879 16.4706 7.05879ZM16.4706 9.41174H11.7647C11.4118 9.41174 11.1765 9.64703 11.1765 9.99997C11.1765 10.3529 11.4118 10.5882 11.7647 10.5882H16.4706C16.8235 10.5882 17.0588 10.3529 17.0588 9.99997C17.0588 9.64703 16.8235 9.41174 16.4706 9.41174ZM16.4706 11.7647H11.7647C11.4118 11.7647 11.1765 12 11.1765 12.3529C11.1765 12.7059 11.4118 12.9411 11.7647 12.9411H16.4706C16.8235 12.9411 17.0588 12.7059 17.0588 12.3529C17.0588 12 16.8235 11.7647 16.4706 11.7647Z" fill="#9F9F9F"/>
</svg>
