<svg width="17" height="18" viewBox="0 0 17 18" fill="none" xmlns="http://www.w3.org/2000/svg">
<g clip-path="url(#clip0_154_2443)">
<path d="M16.344 9.1958C16.344 8.61799 16.2999 8.03706 16.2059 7.46863H8.66V10.7418H12.9812C12.8018 11.7975 12.2257 12.7314 11.382 13.3248V15.4486H13.96C15.4739 13.9682 16.344 11.7819 16.344 9.1958Z" fill="#4285F4"/>
<path d="M8.65999 17.5006C10.8176 17.5006 12.6372 16.7479 13.9629 15.4486L11.385 13.3248C10.6677 13.8432 9.74174 14.1368 8.66293 14.1368C6.57584 14.1368 4.80623 12.6408 4.17128 10.6294H1.51099V12.8188C2.86906 15.6891 5.63518 17.5006 8.65999 17.5006V17.5006Z" fill="#34A853"/>
<path d="M4.16836 10.6294C3.83325 9.57375 3.83325 8.43063 4.16836 7.37496V5.18555H1.511C0.376337 7.58735 0.376337 10.417 1.511 12.8188L4.16836 10.6294V10.6294Z" fill="#FBBC04"/>
<path d="M8.65999 3.86434C9.80053 3.8456 10.9029 4.3016 11.7289 5.13864L14.0129 2.71185C12.5667 1.2689 10.6471 0.475587 8.65999 0.500573C5.63518 0.500573 2.86906 2.31207 1.51099 5.18549L4.16834 7.37491C4.80035 5.36039 6.5729 3.86434 8.65999 3.86434V3.86434Z" fill="#EA4335"/>
</g>
<defs>
<clipPath id="clip0_154_2443">
<rect width="16" height="17" fill="white" transform="translate(0.5 0.5)"/>
</clipPath>
</defs>
</svg>
