<svg width="25" height="24" viewBox="0 0 25 24" fill="none" xmlns="http://www.w3.org/2000/svg">
<path d="M0.938477 1.71921C0.938477 0.769972 1.7325 0 2.71203 0H23.1649C24.1444 0 24.9385 0.769972 24.9385 1.71921V22.2808C24.9385 23.2303 24.1444 24 23.1649 24H2.71203C1.7325 24 0.938477 23.2303 0.938477 22.2808V1.71921Z" fill="#006699"/>
<path fill-rule="evenodd" clip-rule="evenodd" d="M8.85966 20V9.20427H5.21543V20H8.85966ZM7.03753 7.7303C8.30834 7.7303 9.09932 6.90131 9.09932 5.86531C9.07564 4.80599 8.30835 4 7.06164 4C5.81505 4 5 4.80599 5 5.86531C5 6.90131 5.79081 7.7303 7.01377 7.7303H7.03753Z" fill="white"/>
<path fill-rule="evenodd" clip-rule="evenodd" d="M10.876 20H14.5202V13.9712C14.5202 13.6486 14.5439 13.3262 14.6401 13.0956C14.9035 12.4509 15.5032 11.7832 16.5099 11.7832C17.8286 11.7832 18.3561 12.7732 18.3561 14.2245V20H22V13.8099C22 10.4939 20.2021 8.95094 17.8045 8.95094C15.8385 8.95094 14.9755 10.0329 14.4959 10.7699H14.5203V9.20427H10.8761C10.9239 10.2173 10.876 20 10.876 20Z" fill="white"/>
</svg>
