<svg width="20" height="22" viewBox="0 0 20 22" fill="none" xmlns="http://www.w3.org/2000/svg">
<path d="M18 6V16C18 20 17 21 13 21H7C3 21 2 20 2 16V6C2 2 3 1 7 1H13C17 1 18 2 18 6Z" stroke="#9F9F9F" stroke-width="1.5" stroke-linecap="round" stroke-linejoin="round"/>
<path d="M12 4.5H8" stroke="#9F9F9F" stroke-width="1.5" stroke-linecap="round" stroke-linejoin="round"/>
<path d="M10 18.1C10.8561 18.1 11.55 17.406 11.55 16.55C11.55 15.694 10.8561 15 10 15C9.14397 15 8.45001 15.694 8.45001 16.55C8.45001 17.406 9.14397 18.1 10 18.1Z" stroke="#9F9F9F" stroke-width="1.5" stroke-linecap="round" stroke-linejoin="round"/>
</svg>
