<svg width="10" height="10" viewBox="0 0 10 10" fill="none" xmlns="http://www.w3.org/2000/svg">
<path d="M5.86544 0.755068L6.74544 2.51507C6.86544 2.76007 7.18544 2.99507 7.45544 3.04007L9.05044 3.30507C10.0704 3.47507 10.3104 4.21507 9.57544 4.94507L8.33544 6.18507C8.12544 6.39507 8.01044 6.80007 8.07544 7.09007L8.43044 8.62507C8.71044 9.84007 8.06544 10.3101 6.99044 9.67507L5.49544 8.79007C5.22544 8.63007 4.78044 8.63007 4.50544 8.79007L3.01044 9.67507C1.94044 10.3101 1.29044 9.83507 1.57044 8.62507L1.92544 7.09007C1.99044 6.80007 1.87544 6.39507 1.66544 6.18507L0.425443 4.94507C-0.304557 4.21507 -0.0695571 3.47507 0.950443 3.30507L2.54544 3.04007C2.81044 2.99507 3.13044 2.76007 3.25044 2.51507L4.13044 0.755068C4.61044 -0.199932 5.39044 -0.199932 5.86544 0.755068Z" fill="#EAE21C"/>
</svg>
