<svg width="24" height="24" viewBox="0 0 24 24" fill="none" xmlns="http://www.w3.org/2000/svg">
<path d="M8.04116 13.4086H3.05469V17.9546C3.05469 18.4698 3.4738 18.8889 3.98895 18.8889H8.04116V13.4086Z" fill="#9BC47C"/>
<path d="M9.67212 1.47919H7.29785V7.42664H9.67212V1.47919Z" fill="#FF5384"/>
<path d="M6.36336 1.47919H3.98909C3.47356 1.47919 3.05469 1.89853 3.05469 2.41359V6.97111C3.05469 7.19386 3.21069 7.37986 3.41933 7.42664H6.36336V1.47919ZM14.4167 7.42664C14.4525 7.42664 14.4872 7.43086 14.5207 7.43831H16.2893C16.8043 7.43831 17.2237 7.01948 17.2237 6.50391V2.41359C17.2237 1.89853 16.8043 1.47919 16.2893 1.47919H13.915V7.42664H14.4167Z" fill="#FF5384"/>
<path d="M12.9807 1.47919H10.6064V7.42664H12.9807V1.47919Z" fill="#FF5384"/>
<path d="M7.29769 1.47919H6.36328V7.42664H7.29769V1.47919Z" fill="#F5F5FC"/>
<path d="M10.6063 1.47919H9.67188V7.42664H10.6063V1.47919Z" fill="#F5F5FC"/>
<path d="M13.9149 1.47919H12.9805V7.42664H13.9149V1.47919Z" fill="#F5F5FC"/>
<path d="M10.4459 9.08039C11.61 9.14583 12.774 9.43069 13.938 9.93432V8.38397H2.74805V12.4512H8.04117V10.4941C8.04117 10.1661 8.35294 9.92785 8.66944 10.014L9.92428 10.3555V9.5775C9.92428 9.2933 10.1621 9.06446 10.4459 9.08039Z" fill="#F5F5FC"/>
<path d="M8.04084 13.4086V12.4513H2.74772V8.38401H13.9377V9.93435C14.2568 10.0724 14.576 10.2269 14.8951 10.3979V7.90532C14.8951 7.67671 14.7347 7.48584 14.5204 7.43831C14.4869 7.4309 14.4522 7.42664 14.4164 7.42664H13.9147H12.9803H10.606H9.67163H7.29736H6.36295H3.41906H1.18181C0.917437 7.42664 0.703125 7.64095 0.703125 7.90532C0.703125 8.1697 0.917437 8.38401 1.18181 8.38401H1.79034V12.4513H1.18181C0.917437 12.4513 0.703125 12.6656 0.703125 12.9299C0.703125 13.1943 0.917437 13.4086 1.18181 13.4086H3.05438H8.04084Z" fill="#87BEEB"/>
<path d="M22.6688 10.014L21.4139 10.3556V18.3707C21.4139 18.6357 21.2063 18.853 20.9418 18.8673C19.2835 18.9571 17.6097 19.4911 15.92 20.4819C15.8426 20.5273 15.7558 20.55 15.669 20.55C15.5823 20.55 15.4955 20.5273 15.418 20.4819C13.7284 19.491 12.0546 18.957 10.3963 18.8673C10.1317 18.8529 9.92413 18.6357 9.92413 18.3707V10.3556L8.66928 10.014C8.35278 9.92787 8.04102 10.1662 8.04102 10.4942V12.4513V13.4087V18.8889V20.0826C8.04102 20.3071 8.19134 20.5038 8.40795 20.5628L15.5384 22.5034C15.6239 22.5267 15.7142 22.5267 15.7997 22.5034L22.9302 20.5628C23.1468 20.5038 23.2971 20.3071 23.2971 20.0826V10.4942C23.297 10.1662 22.9853 9.92792 22.6688 10.014Z" fill="#EBE287"/>
<path d="M13.9376 9.9343C12.7735 9.43067 11.6095 9.14581 10.4455 9.08037C10.1616 9.06444 9.92383 9.29328 9.92383 9.57753V10.3555V18.3707C9.92383 18.6356 10.1314 18.8529 10.396 18.8672C12.0543 18.957 13.7281 19.491 15.4177 20.4818C15.4952 20.5273 15.582 20.55 15.6687 20.55V10.8444C15.4108 10.6847 15.1529 10.536 14.895 10.3978C14.5758 10.2268 14.2567 10.0723 13.9376 9.9343ZM11.3601 11.7595C11.0957 11.7595 10.8814 11.5452 10.8814 11.2808C10.8814 11.0164 11.0957 10.8021 11.3601 10.8021C12.4035 10.8021 13.4547 11.1254 14.4845 11.7632C14.7093 11.9023 14.7787 12.1974 14.6395 12.4221C14.5489 12.5684 14.3924 12.6489 14.2321 12.6489C14.146 12.6489 14.059 12.6257 13.9805 12.5771C13.1043 12.0345 12.2227 11.7595 11.3601 11.7595ZM11.3601 13.5436C11.0957 13.5436 10.8814 13.3293 10.8814 13.0649C10.8814 12.8005 11.0957 12.5862 11.3601 12.5862C12.4034 12.5862 13.4546 12.9095 14.4845 13.5473C14.7093 13.6865 14.7787 13.9815 14.6395 14.2062C14.5489 14.3525 14.3924 14.433 14.2321 14.433C14.146 14.433 14.059 14.4098 13.9805 14.3612C13.1043 13.8187 12.2227 13.5436 11.3601 13.5436ZM14.6395 15.9904C14.5489 16.1367 14.3924 16.2171 14.2321 16.2171C14.146 16.2171 14.059 16.194 13.9805 16.1454C13.1043 15.6028 12.2227 15.3277 11.3601 15.3277C11.0957 15.3277 10.8814 15.1134 10.8814 14.849C10.8814 14.5847 11.0957 14.3704 11.3601 14.3704C12.4034 14.3704 13.4546 14.6937 14.4845 15.3314C14.7093 15.4706 14.7787 15.7656 14.6395 15.9904ZM13.9805 17.9295C13.1043 17.387 12.2227 17.1118 11.3601 17.1118C11.0957 17.1118 10.8814 16.8975 10.8814 16.6332C10.8814 16.3688 11.0957 16.1545 11.3601 16.1545C12.4035 16.1545 13.4547 16.4778 14.4845 17.1156C14.7093 17.2548 14.7787 17.5498 14.6395 17.7746C14.5489 17.9208 14.3924 18.0013 14.2321 18.0013C14.146 18.0013 14.059 17.9781 13.9805 17.9295Z" fill="#ECECED"/>
<path d="M15.6689 20.55C15.7557 20.55 15.8425 20.5274 15.92 20.4819C17.6096 19.491 19.2834 18.957 20.9417 18.8673C21.2062 18.8529 21.4139 18.6357 21.4139 18.3707V10.3556V9.5776C21.4139 9.29335 21.176 9.06446 20.8922 9.08044C19.1511 9.17832 17.4101 9.76636 15.669 10.8445L15.6689 20.55ZM19.9776 17.1119C19.115 17.1119 18.2334 17.387 17.3571 17.9295C17.2787 17.9782 17.1916 18.0013 17.1056 18.0013C16.9453 18.0013 16.7888 17.9209 16.6982 17.7746C16.559 17.5498 16.6284 17.2548 16.8531 17.1156C17.883 16.4778 18.9343 16.1545 19.9776 16.1545C20.2419 16.1545 20.4563 16.3688 20.4563 16.6332C20.4563 16.8975 20.242 17.1119 19.9776 17.1119ZM19.9776 15.3278C19.115 15.3278 18.2334 15.6029 17.3571 16.1454C17.2787 16.194 17.1916 16.2172 17.1056 16.2172C16.9453 16.2172 16.7888 16.1367 16.6982 15.9904C16.559 15.7657 16.6284 15.4706 16.8531 15.3315C17.883 14.6937 18.9343 14.3704 19.9776 14.3704C20.2419 14.3704 20.4563 14.5847 20.4563 14.8491C20.4563 15.1134 20.242 15.3278 19.9776 15.3278ZM19.9776 13.5436C19.115 13.5436 18.2334 13.8187 17.3571 14.3612C17.2787 14.4098 17.1916 14.433 17.1056 14.433C16.9453 14.433 16.7888 14.3526 16.6982 14.2063C16.559 13.9815 16.6284 13.6865 16.8531 13.5473C17.883 12.9096 18.9343 12.5862 19.9776 12.5862C20.2419 12.5862 20.4563 12.8005 20.4563 13.0649C20.4563 13.3293 20.242 13.5436 19.9776 13.5436ZM19.9776 10.8021C20.2419 10.8021 20.4563 11.0164 20.4563 11.2808C20.4563 11.5452 20.242 11.7595 19.9776 11.7595C19.115 11.7595 18.2333 12.0346 17.3571 12.5771C17.2787 12.6257 17.1916 12.6489 17.1056 12.6489C16.9453 12.6489 16.7888 12.5685 16.6982 12.4222C16.559 12.1974 16.6284 11.9024 16.8531 11.7632C17.883 11.1255 18.9342 10.8021 19.9776 10.8021Z" fill="#F5F5FC"/>
<path d="M14.485 15.3315C13.4551 14.6937 12.4038 14.3704 11.3605 14.3704C11.0961 14.3704 10.8818 14.5847 10.8818 14.8491C10.8818 15.1134 11.0961 15.3278 11.3605 15.3278C12.2231 15.3278 13.1047 15.6029 13.981 16.1454C14.0594 16.194 14.1465 16.2172 14.2325 16.2172C14.3928 16.2172 14.5494 16.1367 14.6399 15.9904C14.7791 15.7657 14.7097 15.4706 14.485 15.3315ZM14.6399 17.7746C14.7791 17.5498 14.7097 17.2548 14.485 17.1156C13.4551 16.4778 12.4039 16.1545 11.3605 16.1545C11.0961 16.1545 10.8818 16.3688 10.8818 16.6332C10.8818 16.8975 11.0961 17.1119 11.3605 17.1119C12.2231 17.1119 13.1047 17.387 13.981 17.9295C14.0594 17.9782 14.1465 18.0013 14.2325 18.0013C14.3928 18.0013 14.5493 17.9208 14.6399 17.7746ZM14.2325 14.433C14.3928 14.433 14.5494 14.3526 14.6399 14.2063C14.7791 13.9815 14.7097 13.6865 14.485 13.5473C13.4551 12.9096 12.4038 12.5862 11.3605 12.5862C11.0961 12.5862 10.8818 12.8005 10.8818 13.0649C10.8818 13.3293 11.0961 13.5436 11.3605 13.5436C12.2231 13.5436 13.1047 13.8187 13.981 14.3612C14.0594 14.4098 14.1465 14.433 14.2325 14.433ZM14.2325 12.6488C14.3928 12.6488 14.5494 12.5684 14.6399 12.4221C14.7791 12.1973 14.7097 11.9023 14.485 11.7631C13.4551 11.1254 12.4039 10.8021 11.3605 10.8021C11.0961 10.8021 10.8818 11.0164 10.8818 11.2808C10.8818 11.5451 11.0961 11.7594 11.3605 11.7594C12.2232 11.7594 13.1048 12.0345 13.981 12.5771C14.0594 12.6257 14.1465 12.6488 14.2325 12.6488ZM19.9778 14.3704C18.9345 14.3704 17.8833 14.6937 16.8534 15.3315C16.6286 15.4706 16.5592 15.7657 16.6984 15.9904C16.789 16.1367 16.9455 16.2172 17.1059 16.2172C17.1918 16.2172 17.2789 16.194 17.3574 16.1454C18.2336 15.6029 19.1152 15.3278 19.9778 15.3278C20.2422 15.3278 20.4565 15.1134 20.4565 14.8491C20.4565 14.5847 20.2422 14.3704 19.9778 14.3704ZM19.9778 16.1545C18.9344 16.1545 17.8832 16.4778 16.8534 17.1156C16.6286 17.2548 16.5592 17.5498 16.6984 17.7746C16.789 17.9208 16.9455 18.0013 17.1059 18.0013C17.1918 18.0013 17.2789 17.9782 17.3574 17.9295C18.2336 17.387 19.1152 17.1119 19.9778 17.1119C20.2422 17.1119 20.4565 16.8975 20.4565 16.6332C20.4565 16.3688 20.2422 16.1545 19.9778 16.1545ZM19.9778 12.5862C18.9345 12.5862 17.8833 12.9096 16.8534 13.5473C16.6286 13.6865 16.5592 13.9815 16.6984 14.2063C16.789 14.3525 16.9455 14.433 17.1059 14.433C17.1918 14.433 17.2789 14.4098 17.3574 14.3612C18.2336 13.8187 19.1152 13.5436 19.9778 13.5436C20.2422 13.5436 20.4565 13.3293 20.4565 13.0649C20.4565 12.8005 20.2422 12.5862 19.9778 12.5862ZM16.6984 12.4222C16.789 12.5684 16.9455 12.6489 17.1059 12.6489C17.1918 12.6489 17.2789 12.6257 17.3574 12.5771C18.2335 12.0346 19.1152 11.7595 19.9778 11.7595C20.2422 11.7595 20.4565 11.5452 20.4565 11.2808C20.4565 11.0164 20.2422 10.8021 19.9778 10.8021C18.9344 10.8021 17.8832 11.1255 16.8534 11.7632C16.6286 11.9024 16.5592 12.1974 16.6984 12.4222Z" fill="#DE8BAE"/>
</svg>
