<svg width="25" height="24" viewBox="0 0 25 24" fill="none" xmlns="http://www.w3.org/2000/svg">
<circle cx="12.5" cy="12" r="12" fill="#FFCE51"/>
<g clip-path="url(#clip0_475_5751)">
<ellipse cx="12.9375" cy="13.375" rx="2.34375" ry="3.28125" fill="#FFCE51"/>
<path d="M16.675 11.7188C15.6937 9.16884 12.2 9.03134 13.0437 5.32509C13.1062 5.05009 12.8125 4.83759 12.575 4.98134C10.3062 6.31884 8.675 9.00009 10.0437 12.5126C10.1562 12.8001 9.81875 13.0688 9.575 12.8813C8.44375 12.0251 8.325 10.7938 8.425 9.91259C8.4625 9.58759 8.0375 9.43134 7.85625 9.70009C7.43125 10.3501 7 11.4001 7 12.9813C7.2375 16.4813 10.1937 17.5563 11.2562 17.6938C12.775 17.8876 14.4187 17.6063 15.6 16.5251C16.9 15.3188 17.375 13.3938 16.675 11.7188ZM10.875 14.8626C11.775 14.6438 12.2375 13.9938 12.3625 13.4188C12.5687 12.5251 11.7625 11.6501 12.3062 10.2376C12.5125 11.4063 14.35 12.1376 14.35 13.4126C14.4 14.9938 12.6875 16.3501 10.875 14.8626Z" fill="#FF7324"/>
</g>
<defs>
<clipPath id="clip0_475_5751">
<rect width="15" height="15" fill="white" transform="translate(4.5 4)"/>
</clipPath>
</defs>
</svg>
