<svg width="10" height="14" viewBox="0 0 10 14" fill="none" xmlns="http://www.w3.org/2000/svg">
<path d="M9.675 7.71884C8.69375 5.16884 5.2 5.03134 6.04375 1.32509C6.10625 1.05009 5.8125 0.837588 5.575 0.981338C3.30625 2.31884 1.675 5.00009 3.04375 8.51259C3.15625 8.80009 2.81875 9.06884 2.575 8.88134C1.44375 8.02509 1.325 6.79384 1.425 5.91259C1.4625 5.58759 1.0375 5.43134 0.85625 5.70009C0.43125 6.35009 0 7.40009 0 8.98134C0.2375 12.4813 3.19375 13.5563 4.25625 13.6938C5.775 13.8876 7.41875 13.6063 8.6 12.5251C9.9 11.3188 10.375 9.39384 9.675 7.71884ZM3.875 10.8626C4.775 10.6438 5.2375 9.99384 5.3625 9.41884C5.56875 8.52509 4.7625 7.65009 5.30625 6.23759C5.5125 7.40634 7.35 8.13759 7.35 9.41259C7.4 10.9938 5.6875 12.3501 3.875 10.8626Z" fill="#FF7324"/>
</svg>
