<svg width="16" height="16" viewBox="0 0 16 16" fill="none" xmlns="http://www.w3.org/2000/svg">
<path d="M6.00033 6.66667C6.73671 6.66667 7.33366 6.06971 7.33366 5.33333C7.33366 4.59695 6.73671 4 6.00033 4C5.26395 4 4.66699 4.59695 4.66699 5.33333C4.66699 6.06971 5.26395 6.66667 6.00033 6.66667Z" stroke="#9F9F9F" stroke-width="1.5" stroke-linecap="round" stroke-linejoin="round"/>
<path d="M8.66634 1.33325H5.99967C2.66634 1.33325 1.33301 2.66659 1.33301 5.99992V9.99992C1.33301 13.3333 2.66634 14.6666 5.99967 14.6666H9.99967C13.333 14.6666 14.6663 13.3333 14.6663 9.99992V6.66659" stroke="#9F9F9F" stroke-width="1.5" stroke-linecap="round" stroke-linejoin="round"/>
<path d="M12.7603 1.72669L10.3403 4.14669C10.2469 4.24002 10.1536 4.42002 10.1403 4.55335L10.0069 5.48002C9.96025 5.81335 10.1936 6.04669 10.5269 6.00002L11.4536 5.86669C11.5803 5.84669 11.7669 5.76002 11.8603 5.66669L14.2803 3.24669C14.7003 2.82669 14.8936 2.34669 14.2803 1.73335C13.6603 1.10669 13.1803 1.30669 12.7603 1.72669Z" stroke="#9F9F9F" stroke-width="1.5" stroke-miterlimit="10" stroke-linecap="round" stroke-linejoin="round"/>
<path d="M12.4131 2.07324C12.6198 2.80658 13.1931 3.37991 13.9264 3.58658" stroke="#9F9F9F" stroke-width="1.5" stroke-miterlimit="10" stroke-linecap="round" stroke-linejoin="round"/>
<path d="M1.78027 12.6333L5.06694 10.4266C5.59361 10.0733 6.35361 10.1133 6.82694 10.52L7.04694 10.7133C7.56694 11.16 8.40694 11.16 8.92694 10.7133L11.7003 8.33329C12.2203 7.88662 13.0603 7.88662 13.5803 8.33329L14.6669 9.26662" stroke="#9F9F9F" stroke-width="1.5" stroke-linecap="round" stroke-linejoin="round"/>
</svg>
