<svg width="13" height="12" viewBox="0 0 13 12" fill="none" xmlns="http://www.w3.org/2000/svg">
<path d="M5.0793 5.435C5.0293 5.43 4.9693 5.43 4.9143 5.435C3.7243 5.395 2.7793 4.42 2.7793 3.22C2.7793 1.995 3.7693 1 4.9993 1C6.2243 1 7.2193 1.995 7.2193 3.22C7.2143 4.42 6.2693 5.395 5.0793 5.435Z" stroke="#9F9F9F" stroke-width="1.5" stroke-linecap="round" stroke-linejoin="round"/>
<path d="M8.70562 2C9.67562 2 10.4556 2.785 10.4556 3.75C10.4556 4.695 9.70563 5.465 8.77063 5.5C8.73063 5.495 8.68563 5.495 8.64062 5.5" stroke="#9F9F9F" stroke-width="1.5" stroke-linecap="round" stroke-linejoin="round"/>
<path d="M2.57938 7.28C1.36937 8.09 1.36937 9.41 2.57938 10.215C3.95438 11.135 6.20938 11.135 7.58438 10.215C8.79438 9.405 8.79438 8.085 7.58438 7.28C6.21438 6.365 3.95938 6.365 2.57938 7.28Z" stroke="#9F9F9F" stroke-width="1.5" stroke-linecap="round" stroke-linejoin="round"/>
<path d="M9.66992 10C10.0299 9.925 10.3699 9.78 10.6499 9.565C11.4299 8.98 11.4299 8.015 10.6499 7.43C10.3749 7.22 10.0399 7.08 9.68492 7" stroke="#9F9F9F" stroke-width="1.5" stroke-linecap="round" stroke-linejoin="round"/>
</svg>
