<svg width="121" height="120" viewBox="0 0 121 120" fill="none" xmlns="http://www.w3.org/2000/svg">
<path d="M50.1 61.04H70.9C72.044 61.04 72.98 60.104 72.98 58.96V46.48C72.98 45.336 72.044 44.4 70.9 44.4H50.1C48.956 44.4 48.02 45.336 48.02 46.48V58.96C48.02 60.104 48.956 61.04 50.1 61.04ZM52.18 48.56H68.82V56.88H52.18V48.56ZM30.34 88.08V94.32C30.34 95.464 29.404 96.4 28.26 96.4C27.116 96.4 26.18 95.464 26.18 94.32V88.08C26.18 86.936 27.116 86 28.26 86C29.404 86 30.34 86.936 30.34 88.08ZM30.34 71.44V77.68C30.34 78.824 29.404 79.76 28.26 79.76C27.116 79.76 26.18 78.824 26.18 77.68V71.44C26.18 70.296 27.116 69.36 28.26 69.36C29.404 69.36 30.34 70.296 30.34 71.44ZM106.26 60.936V60.52C106.26 60.416 106.26 60.416 106.156 60.312C106.156 60.208 106.052 60.208 106.052 60.104V60L97.732 45.44V45.336C97.732 45.232 97.628 45.232 97.628 45.128L97.524 45.024L97.42 44.92L97.316 44.816C97.212 44.816 97.212 44.712 97.108 44.712C97.004 44.712 97.004 44.608 96.9 44.608C96.796 44.608 96.796 44.504 96.692 44.504C96.588 44.504 96.588 44.504 96.484 44.4H83.38V38.16H88.58C89.724 38.16 90.66 37.224 90.66 36.08C90.66 34.936 89.724 34 88.58 34H62.58V27.76H81.3C82.444 27.76 83.38 26.824 83.38 25.68V15.28C83.38 14.136 82.444 13.2 81.3 13.2H60.5C59.356 13.2 58.42 14.136 58.42 15.28V34H32.42C31.276 34 30.34 34.936 30.34 36.08C30.34 37.224 31.276 38.16 32.42 38.16H37.62V44.4H24.62C24.516 44.4 24.516 44.4 24.412 44.504C24.308 44.504 24.308 44.504 24.204 44.608C24.1 44.608 24.1 44.712 23.996 44.712C23.892 44.712 23.892 44.816 23.788 44.816C23.684 44.816 23.684 44.92 23.684 44.92C23.58 44.92 23.58 45.024 23.58 45.024L23.476 45.128C23.476 45.232 23.372 45.232 23.372 45.336V45.44L15.052 60V60.104C15.052 60.208 14.948 60.208 14.948 60.312C14.948 60.416 14.948 60.416 14.844 60.52V104.72C14.844 105.864 15.78 106.8 16.924 106.8H104.284C105.428 106.8 106.364 105.864 106.364 104.72V61.04C106.26 61.04 106.26 60.936 106.26 60.936ZM79.22 23.6H62.58V17.36H79.22V23.6ZM94.612 48.56L100.54 58.96H83.38V48.56H94.612ZM37.62 58.96H20.356L26.284 48.56H37.62V58.96ZM18.9 63.12H37.62V102.64H18.9V63.12ZM41.78 61.04V38.16H79.22V102.64H72.98V79.76C72.98 72.896 67.364 67.28 60.5 67.28C53.636 67.28 48.02 72.896 48.02 79.76V102.64H41.78V61.04ZM68.508 77.68H52.492C53.428 74.144 56.652 71.44 60.5 71.44C64.348 71.44 67.572 74.144 68.508 77.68ZM52.18 102.64V81.84H68.82V102.64H52.18ZM102.1 102.64H83.38V63.12H102.1V102.64ZM90.66 94.32V88.08C90.66 86.936 91.596 86 92.74 86C93.884 86 94.82 86.936 94.82 88.08V94.32C94.82 95.464 93.884 96.4 92.74 96.4C91.596 96.4 90.66 95.464 90.66 94.32ZM90.66 77.68V71.44C90.66 70.296 91.596 69.36 92.74 69.36C93.884 69.36 94.82 70.296 94.82 71.44V77.68C94.82 78.824 93.884 79.76 92.74 79.76C91.596 79.76 90.66 78.824 90.66 77.68Z" fill="#4054B2"/>
</svg>
