<svg width="91" height="92" viewBox="0 0 91 92" fill="none" xmlns="http://www.w3.org/2000/svg">
<path d="M45.5 33C42.2861 33 39.1443 32.047 36.472 30.2614C33.7997 28.4758 31.7169 25.9379 30.487 22.9686C29.257 19.9993 28.9352 16.732 29.5622 13.5798C30.1892 10.4276 31.7369 7.53213 34.0095 5.25952C36.2821 2.98692 39.1776 1.43926 42.3298 0.812247C45.482 0.185237 48.7493 0.507041 51.7186 1.73696C54.6879 2.96689 57.2258 5.04969 59.0114 7.72199C60.797 10.3943 61.75 13.5361 61.75 16.75C61.75 18.884 61.3297 20.9971 60.513 22.9686C59.6964 24.9402 58.4994 26.7315 56.9905 28.2405C55.4815 29.7494 53.6901 30.9464 51.7186 31.7631C49.7471 32.5797 47.634 33 45.5 33ZM45.5 67.71C47.6043 63.3374 50.6611 59.4914 54.446 56.4545C58.2309 53.4176 62.6478 51.2668 67.3725 50.16H67.535C66.2792 45.27 63.4325 40.9367 59.4432 37.8424C55.4539 34.7481 50.5487 33.0687 45.5 33.0687C40.4513 33.0687 35.5461 34.7481 31.5568 37.8424C27.5675 40.9367 24.7208 45.27 23.465 50.16C28.2192 51.2448 32.6684 53.3855 36.4828 56.4236C40.2972 59.4616 43.379 63.319 45.5 67.71ZM79.8525 65.5C77.1887 65.4993 74.5281 65.6839 71.89 66.0525C58.0125 67.9375 47.385 74.6 45.89 82.8225C45.6879 83.5336 45.5573 84.263 45.5 85C45.5048 84.225 45.4286 83.4516 45.2725 82.6925C43.615 74.47 32.9875 67.8075 19.2725 65.9225C16.5776 65.5898 13.8624 65.4486 11.1475 65.5H0V91.5H91V65.5H79.8525ZM49.01 68.0025C47.9087 70.0603 47.0576 72.2425 46.475 74.5025C51.3825 68.7175 60.32 64.4275 71.435 62.9325C74.2217 62.511 77.0343 62.283 79.8525 62.25H84.5V52.5H74.945C72.6461 52.5041 70.3556 52.7768 68.12 53.3125C64.0889 54.2991 60.3076 56.1149 57.0173 58.6441C53.727 61.1734 50.9999 64.3606 49.01 68.0025ZM19.5 62.835C30.615 64.33 39.5525 68.62 44.4925 74.405C43.3591 70.2434 41.3369 66.377 38.5652 63.0723C35.7935 59.7675 32.3382 57.1031 28.4375 55.2625C26.6157 54.4138 24.7093 53.7602 22.75 53.3125C20.5567 52.7867 18.3104 52.5141 16.055 52.5H6.5V62.25H11.1475C13.9419 62.2511 16.7328 62.4466 19.5 62.835Z" fill="#4054B2"/>
</svg>
