<svg width="105" height="104" viewBox="0 0 105 104" fill="none" xmlns="http://www.w3.org/2000/svg">
<path d="M20.4063 73.125C17.6744 73.125 15.0039 72.3149 12.7324 70.7972C10.461 69.2794 8.69061 67.1222 7.64517 64.5983C6.59974 62.0744 6.3262 59.2972 6.85916 56.6178C7.39212 53.9385 8.70763 51.4773 10.6393 49.5456C12.5711 47.6139 15.0322 46.2984 17.7116 45.7654C20.3909 45.2325 23.1682 45.506 25.6921 46.5514C28.216 47.5969 30.3732 49.3672 31.8909 51.6387C33.4087 53.9101 34.2188 56.5807 34.2188 59.3125C34.2145 62.9745 32.7578 66.4853 30.1684 69.0747C27.579 71.6641 24.0682 73.1207 20.4063 73.125ZM20.4063 50.375C18.6386 50.375 16.9106 50.8992 15.4408 51.8812C13.9711 52.8633 12.8255 54.2592 12.1491 55.8923C11.4726 57.5254 11.2956 59.3224 11.6405 61.0561C11.9853 62.7898 12.8366 64.3823 14.0865 65.6323C15.3364 66.8822 16.9289 67.7334 18.6626 68.0783C20.3963 68.4231 22.1934 68.2461 23.8265 67.5697C25.4596 66.8932 26.8554 65.7477 27.8375 64.2779C28.8196 62.8082 29.3438 61.0802 29.3438 59.3125C29.3395 56.9435 28.3965 54.6727 26.7213 52.9975C25.0461 51.3223 22.7753 50.3793 20.4063 50.375Z" fill="#4054B2"/>
<path d="M32.5938 92.625H8.21875C7.57228 92.625 6.9523 92.3682 6.49518 91.9111C6.03806 91.454 5.78125 90.834 5.78125 90.1875V78.8125C5.78555 76.0125 6.89976 73.3284 8.87968 71.3484C10.8596 69.3685 13.5437 68.2543 16.3438 68.25H24.4688C27.2688 68.2543 29.9529 69.3685 31.9328 71.3484C33.9127 73.3284 35.027 76.0125 35.0312 78.8125V90.1875C35.0312 90.834 34.7744 91.454 34.3173 91.9111C33.8602 92.3682 33.2402 92.625 32.5938 92.625ZM10.6562 87.75H30.1562V78.8125C30.1562 77.3041 29.557 75.8574 28.4904 74.7908C27.4238 73.7242 25.9772 73.125 24.4688 73.125H16.3438C14.8353 73.125 13.3887 73.7242 12.3221 74.7908C11.2555 75.8574 10.6562 77.3041 10.6562 78.8125V87.75Z" fill="#4054B2"/>
<path d="M33.4062 82.875C32.9371 82.876 32.4777 82.7416 32.0831 82.4879C31.6885 82.2342 31.3754 81.872 31.1816 81.4448C30.9877 81.0176 30.9212 80.5436 30.9901 80.0795C31.059 79.6155 31.2604 79.1812 31.57 78.8288L54.32 52.8288C54.751 52.3417 55.3578 52.0459 56.0069 52.0063C56.656 51.9667 57.2942 52.1865 57.7812 52.6175C58.2683 53.0485 58.5641 53.6553 58.6037 54.3044C58.6433 54.9535 58.4235 55.5917 57.9925 56.0788L35.2425 82.0788C35.0109 82.3347 34.7272 82.5382 34.4105 82.6755C34.0938 82.8128 33.7514 82.8809 33.4062 82.875ZM96.7812 16.25H17.1562C16.5098 16.25 15.8898 15.9932 15.4327 15.5361C14.9756 15.079 14.7188 14.459 14.7188 13.8125C14.7188 13.166 14.9756 12.546 15.4327 12.0889C15.8898 11.6318 16.5098 11.375 17.1562 11.375H96.7812C97.4277 11.375 98.0477 11.6318 98.5048 12.0889C98.9619 12.546 99.2188 13.166 99.2188 13.8125C99.2188 14.459 98.9619 15.079 98.5048 15.5361C98.0477 15.9932 97.4277 16.25 96.7812 16.25ZM96.7812 66.625H62.6562C62.0098 66.625 61.3898 66.3682 60.9327 65.9111C60.4756 65.454 60.2188 64.834 60.2188 64.1875C60.2188 63.541 60.4756 62.921 60.9327 62.4639C61.3898 62.0068 62.0098 61.75 62.6562 61.75H96.7812C97.4277 61.75 98.0477 62.0068 98.5048 62.4639C98.9619 62.921 99.2188 63.541 99.2188 64.1875C99.2188 64.834 98.9619 65.454 98.5048 65.9111C98.0477 66.3682 97.4277 66.625 96.7812 66.625Z" fill="#4054B2"/>
<path d="M90.2812 66.625C89.6348 66.625 89.0148 66.3682 88.5577 65.9111C88.1006 65.454 87.8438 64.834 87.8438 64.1875V13.8125C87.8438 13.166 88.1006 12.546 88.5577 12.0889C89.0148 11.6318 89.6348 11.375 90.2812 11.375C90.9277 11.375 91.5477 11.6318 92.0048 12.0889C92.4619 12.546 92.7188 13.166 92.7188 13.8125V64.1875C92.7188 64.834 92.4619 65.454 92.0048 65.9111C91.5477 66.3682 90.9277 66.625 90.2812 66.625ZM23.6562 39C23.0098 39 22.3898 38.7432 21.9327 38.2861C21.4756 37.829 21.2188 37.209 21.2188 36.5625V13.8125C21.2188 13.166 21.4756 12.546 21.9327 12.0889C22.3898 11.6318 23.0098 11.375 23.6562 11.375C24.3027 11.375 24.9227 11.6318 25.3798 12.0889C25.8369 12.546 26.0938 13.166 26.0938 13.8125V36.5625C26.0938 37.209 25.8369 37.829 25.3798 38.2861C24.9227 38.7432 24.3027 39 23.6562 39ZM59.4062 30.875H41.5312C40.8848 30.875 40.2648 30.6182 39.8077 30.1611C39.3506 29.704 39.0938 29.084 39.0938 28.4375C39.0938 27.791 39.3506 27.171 39.8077 26.7139C40.2648 26.2568 40.8848 26 41.5312 26H59.4062C60.0527 26 60.6727 26.2568 61.1298 26.7139C61.5869 27.171 61.8438 27.791 61.8438 28.4375C61.8438 29.084 61.5869 29.704 61.1298 30.1611C60.6727 30.6182 60.0527 30.875 59.4062 30.875ZM70.7812 43.875H41.5312C40.8848 43.875 40.2648 43.6182 39.8077 43.1611C39.3506 42.704 39.0938 42.084 39.0938 41.4375C39.0938 40.791 39.3506 40.171 39.8077 39.7139C40.2648 39.2568 40.8848 39 41.5312 39H70.7812C71.4277 39 72.0477 39.2568 72.5048 39.7139C72.9619 40.171 73.2188 40.791 73.2188 41.4375C73.2188 42.084 72.9619 42.704 72.5048 43.1611C72.0477 43.6182 71.4277 43.875 70.7812 43.875Z" fill="#4054B2"/>
</svg>
